# xmcd CD database file
#
# Track frame offsets:
#	182
#	22255
#	39775
#
# Disc length: 905 seconds
#
# Revision: 2
# Processed by: cddbd v1.5.1PL0 Copyright (c) Steve Scherf et al.
# Submitted via: CDex 1.51
#
DISCID=1b038703
DTITLE=Annie Williams - Folie
DYEAR=1995
DGENRE=Techno
TTITLE0=Folie
TTITLE1=Hope
TTITLE2=Jukebox Heart
EXTD=YEAR: 1995
EXTT0=
EXTT1=
EXTT2=
PLAYORDER=
